<mxfile host="Electron" modified="2024-01-29T18:30:55.632Z" agent="Mozilla/5.0 (Macintosh; Intel Mac OS X 10_15_7) AppleWebKit/537.36 (KHTML, like Gecko) draw.io/22.1.21 Chrome/120.0.6099.109 Electron/28.1.0 Safari/537.36" etag="fo-djSK9_v58MwEuSPH6" version="22.1.21" type="device" pages="2">
  <diagram name="Heat Exchanger" id="UVLjKC1afp3VqHMeAu_q">
    <mxGraphModel dx="-2190" dy="1784" grid="1" gridSize="10" guides="1" tooltips="1" connect="1" arrows="1" fold="1" page="1" pageScale="1" pageWidth="850" pageHeight="1100" math="1" shadow="0">
      <root>
        <mxCell id="0" />
        <mxCell id="1" parent="0" />
        <mxCell id="YpiQ6v-Z-xjZzgeYDtnH-5" value="&lt;font style=&quot;font-size: 14px;&quot;&gt;Hardware&lt;/font&gt;" style="ellipse;whiteSpace=wrap;html=1;aspect=fixed;fillColor=#CCCCCC;strokeColor=#666666;strokeWidth=2;fontColor=#333333;" parent="1" vertex="1">
          <mxGeometry x="3690" y="-380" width="80" height="80" as="geometry" />
        </mxCell>
        <mxCell id="YpiQ6v-Z-xjZzgeYDtnH-4" value="&lt;div style=&quot;text-align: center;&quot;&gt;&lt;font style=&quot;font-size: 48px;&quot;&gt;Heat Exchanger&lt;/font&gt;&lt;/div&gt;" style="text;whiteSpace=wrap;html=1;fillColor=none;" parent="1" vertex="1">
          <mxGeometry x="3450" y="-870" width="390" height="40" as="geometry" />
        </mxCell>
        <mxCell id="YpiQ6v-Z-xjZzgeYDtnH-6" value="&lt;span style=&quot;font-size: 14px;&quot;&gt;Tubing 1&amp;nbsp;&lt;/span&gt;" style="ellipse;whiteSpace=wrap;html=1;aspect=fixed;fillColor=#CCCCCC;strokeColor=#666666;strokeWidth=2;fontColor=#333333;" parent="1" vertex="1">
          <mxGeometry x="3810" y="-590" width="80" height="80" as="geometry" />
        </mxCell>
        <mxCell id="YpiQ6v-Z-xjZzgeYDtnH-7" value="&lt;span style=&quot;font-size: 14px;&quot;&gt;Tubing 2&lt;/span&gt;" style="ellipse;whiteSpace=wrap;html=1;aspect=fixed;fillColor=#CCCCCC;strokeColor=#666666;strokeWidth=2;fontColor=#333333;" parent="1" vertex="1">
          <mxGeometry x="3920" y="-470" width="80" height="80" as="geometry" />
        </mxCell>
        <mxCell id="YpiQ6v-Z-xjZzgeYDtnH-8" value="&lt;font style=&quot;font-size: 14px;&quot;&gt;$$Tr_{heat}$$&lt;/font&gt;" style="ellipse;whiteSpace=wrap;html=1;aspect=fixed;fillColor=#A9C4EB;strokeWidth=2;" parent="1" vertex="1">
          <mxGeometry x="3785" y="-460" width="80" height="80" as="geometry" />
        </mxCell>
        <mxCell id="YpiQ6v-Z-xjZzgeYDtnH-9" value="" style="endArrow=classic;html=1;rounded=0;strokeWidth=2;" parent="1" source="YpiQ6v-Z-xjZzgeYDtnH-7" target="YpiQ6v-Z-xjZzgeYDtnH-8" edge="1">
          <mxGeometry width="50" height="50" relative="1" as="geometry">
            <mxPoint x="4048" y="268" as="sourcePoint" />
            <mxPoint x="4082" y="257" as="targetPoint" />
          </mxGeometry>
        </mxCell>
        <mxCell id="YpiQ6v-Z-xjZzgeYDtnH-11" value="" style="endArrow=classic;html=1;rounded=0;strokeWidth=2;" parent="1" source="YpiQ6v-Z-xjZzgeYDtnH-5" target="YpiQ6v-Z-xjZzgeYDtnH-8" edge="1">
          <mxGeometry width="50" height="50" relative="1" as="geometry">
            <mxPoint x="3830" y="-270" as="sourcePoint" />
            <mxPoint x="3830" y="-380" as="targetPoint" />
          </mxGeometry>
        </mxCell>
        <mxCell id="YpiQ6v-Z-xjZzgeYDtnH-12" value="" style="endArrow=classic;html=1;rounded=0;strokeWidth=2;" parent="1" source="YpiQ6v-Z-xjZzgeYDtnH-6" target="YpiQ6v-Z-xjZzgeYDtnH-8" edge="1">
          <mxGeometry width="50" height="50" relative="1" as="geometry">
            <mxPoint x="3709" y="-307" as="sourcePoint" />
            <mxPoint x="3801" y="-393" as="targetPoint" />
          </mxGeometry>
        </mxCell>
        <mxCell id="YpiQ6v-Z-xjZzgeYDtnH-13" value="&lt;font style=&quot;font-size: 14px;&quot;&gt;$$A$$&lt;/font&gt;" style="ellipse;whiteSpace=wrap;html=1;aspect=fixed;fillColor=#f8cecc;strokeColor=#b85450;strokeWidth=2;" parent="1" vertex="1">
          <mxGeometry x="3680" y="-270" width="80" height="80" as="geometry" />
        </mxCell>
        <mxCell id="YpiQ6v-Z-xjZzgeYDtnH-14" value="&lt;font style=&quot;font-size: 14px;&quot;&gt;$$A$$&lt;/font&gt;" style="ellipse;whiteSpace=wrap;html=1;aspect=fixed;fillColor=#f8cecc;strokeColor=#b85450;strokeWidth=2;" parent="1" vertex="1">
          <mxGeometry x="3940" y="-610" width="80" height="80" as="geometry" />
        </mxCell>
        <mxCell id="YpiQ6v-Z-xjZzgeYDtnH-15" value="" style="endArrow=classic;html=1;rounded=0;strokeWidth=2;" parent="1" source="YpiQ6v-Z-xjZzgeYDtnH-14" target="YpiQ6v-Z-xjZzgeYDtnH-7" edge="1">
          <mxGeometry width="50" height="50" relative="1" as="geometry">
            <mxPoint x="3912" y="-444" as="sourcePoint" />
            <mxPoint x="3868" y="-431" as="targetPoint" />
          </mxGeometry>
        </mxCell>
        <mxCell id="YpiQ6v-Z-xjZzgeYDtnH-16" value="" style="endArrow=classic;html=1;rounded=0;strokeWidth=2;" parent="1" source="YpiQ6v-Z-xjZzgeYDtnH-14" target="YpiQ6v-Z-xjZzgeYDtnH-6" edge="1">
          <mxGeometry width="50" height="50" relative="1" as="geometry">
            <mxPoint x="3976" y="-523" as="sourcePoint" />
            <mxPoint x="3964" y="-492" as="targetPoint" />
          </mxGeometry>
        </mxCell>
        <mxCell id="YpiQ6v-Z-xjZzgeYDtnH-17" value="" style="endArrow=classic;html=1;rounded=0;strokeWidth=2;" parent="1" source="YpiQ6v-Z-xjZzgeYDtnH-13" target="YpiQ6v-Z-xjZzgeYDtnH-5" edge="1">
          <mxGeometry width="50" height="50" relative="1" as="geometry">
            <mxPoint x="3951" y="-552" as="sourcePoint" />
            <mxPoint x="3670" y="-280" as="targetPoint" />
          </mxGeometry>
        </mxCell>
        <mxCell id="YpiQ6v-Z-xjZzgeYDtnH-18" value="&lt;font style=&quot;font-size: 14px;&quot;&gt;$$D$$&lt;/font&gt;" style="ellipse;whiteSpace=wrap;html=1;aspect=fixed;fillColor=#f8cecc;strokeColor=#b85450;strokeWidth=2;" parent="1" vertex="1">
          <mxGeometry x="3520" y="-360" width="80" height="80" as="geometry" />
        </mxCell>
        <mxCell id="YpiQ6v-Z-xjZzgeYDtnH-19" value="" style="endArrow=classic;html=1;rounded=0;strokeWidth=2;" parent="1" source="YpiQ6v-Z-xjZzgeYDtnH-18" target="YpiQ6v-Z-xjZzgeYDtnH-5" edge="1">
          <mxGeometry width="50" height="50" relative="1" as="geometry">
            <mxPoint x="3629" y="-175" as="sourcePoint" />
            <mxPoint x="3651" y="-215" as="targetPoint" />
          </mxGeometry>
        </mxCell>
        <mxCell id="YpiQ6v-Z-xjZzgeYDtnH-20" value="&lt;font style=&quot;font-size: 12px;&quot;&gt;Meteorite Impact&lt;/font&gt;" style="ellipse;whiteSpace=wrap;html=1;aspect=fixed;strokeWidth=2;strokeColor=#b85450;fillColor=#ffffff;dashed=1;" parent="1" vertex="1">
          <mxGeometry x="3470" y="-240" width="50" height="50" as="geometry" />
        </mxCell>
        <mxCell id="YpiQ6v-Z-xjZzgeYDtnH-21" value="Interact" style="ellipse;whiteSpace=wrap;html=1;aspect=fixed;strokeWidth=2;strokeColor=#b85450;fillColor=#ffffff;dashed=1;" parent="1" vertex="1">
          <mxGeometry x="3580" y="-255" width="50" height="50" as="geometry" />
        </mxCell>
        <mxCell id="YpiQ6v-Z-xjZzgeYDtnH-22" value="" style="endArrow=classic;html=1;rounded=0;strokeColor=#B85450;dashed=1;dashPattern=8 8;strokeWidth=2;" parent="1" source="YpiQ6v-Z-xjZzgeYDtnH-20" target="YpiQ6v-Z-xjZzgeYDtnH-18" edge="1">
          <mxGeometry width="50" height="50" relative="1" as="geometry">
            <mxPoint x="4010" y="370" as="sourcePoint" />
            <mxPoint x="4010" y="320" as="targetPoint" />
          </mxGeometry>
        </mxCell>
        <mxCell id="YpiQ6v-Z-xjZzgeYDtnH-23" value="" style="endArrow=classic;html=1;rounded=0;strokeColor=#B85450;dashed=1;dashPattern=8 8;strokeWidth=2;" parent="1" source="YpiQ6v-Z-xjZzgeYDtnH-21" target="YpiQ6v-Z-xjZzgeYDtnH-18" edge="1">
          <mxGeometry width="50" height="50" relative="1" as="geometry">
            <mxPoint x="3479" y="-211" as="sourcePoint" />
            <mxPoint x="3511" y="-220" as="targetPoint" />
          </mxGeometry>
        </mxCell>
        <mxCell id="YpiQ6v-Z-xjZzgeYDtnH-24" value="&lt;span style=&quot;font-size: 14px;&quot;&gt;Fluid C.&lt;/span&gt;" style="ellipse;whiteSpace=wrap;html=1;aspect=fixed;fillColor=#CCCCCC;strokeColor=#666666;strokeWidth=2;fontColor=#333333;" parent="1" vertex="1">
          <mxGeometry x="3580" y="-750" width="80" height="80" as="geometry" />
        </mxCell>
        <mxCell id="YpiQ6v-Z-xjZzgeYDtnH-25" value="&lt;span style=&quot;font-size: 14px;&quot;&gt;Fluid H.&lt;/span&gt;" style="ellipse;whiteSpace=wrap;html=1;aspect=fixed;fillColor=#CCCCCC;strokeColor=#666666;strokeWidth=2;fontColor=#333333;" parent="1" vertex="1">
          <mxGeometry x="3940" y="-230" width="80" height="80" as="geometry" />
        </mxCell>
        <mxCell id="YpiQ6v-Z-xjZzgeYDtnH-26" value="&lt;font style=&quot;font-size: 14px;&quot;&gt;$$c_{fluid}.$$&lt;/font&gt;" style="ellipse;whiteSpace=wrap;html=1;aspect=fixed;strokeWidth=2;strokeColor=#d6b656;fillColor=#fff2cc;direction=south;rotation=0;" parent="1" vertex="1">
          <mxGeometry x="3790" y="-275" width="80" height="80" as="geometry" />
        </mxCell>
        <mxCell id="YpiQ6v-Z-xjZzgeYDtnH-27" value="&lt;font style=&quot;font-size: 14px;&quot;&gt;$$T_{fluid}.$$&lt;/font&gt;" style="ellipse;whiteSpace=wrap;html=1;aspect=fixed;strokeWidth=2;strokeColor=#d6b656;fillColor=#fff2cc;direction=south;rotation=0;" parent="1" vertex="1">
          <mxGeometry x="3900" y="-340" width="80" height="80" as="geometry" />
        </mxCell>
        <mxCell id="YpiQ6v-Z-xjZzgeYDtnH-28" value="&lt;font style=&quot;font-size: 14px;&quot;&gt;$$P_{fluid}.$$&lt;/font&gt;" style="ellipse;whiteSpace=wrap;html=1;aspect=fixed;strokeWidth=2;strokeColor=#d6b656;fillColor=#fff2cc;direction=south;rotation=0;" parent="1" vertex="1">
          <mxGeometry x="4020" y="-370" width="80" height="80" as="geometry" />
        </mxCell>
        <mxCell id="YpiQ6v-Z-xjZzgeYDtnH-29" value="" style="endArrow=classic;html=1;rounded=0;strokeWidth=2;" parent="1" source="YpiQ6v-Z-xjZzgeYDtnH-25" target="YpiQ6v-Z-xjZzgeYDtnH-26" edge="1">
          <mxGeometry width="50" height="50" relative="1" as="geometry">
            <mxPoint x="3976" y="-523" as="sourcePoint" />
            <mxPoint x="3964" y="-492" as="targetPoint" />
          </mxGeometry>
        </mxCell>
        <mxCell id="YpiQ6v-Z-xjZzgeYDtnH-31" value="" style="endArrow=classic;html=1;rounded=0;strokeWidth=2;" parent="1" source="YpiQ6v-Z-xjZzgeYDtnH-25" target="YpiQ6v-Z-xjZzgeYDtnH-27" edge="1">
          <mxGeometry width="50" height="50" relative="1" as="geometry">
            <mxPoint x="4022" y="-251" as="sourcePoint" />
            <mxPoint x="3948" y="-274" as="targetPoint" />
          </mxGeometry>
        </mxCell>
        <mxCell id="YpiQ6v-Z-xjZzgeYDtnH-32" value="" style="endArrow=classic;html=1;rounded=0;strokeWidth=2;" parent="1" source="YpiQ6v-Z-xjZzgeYDtnH-25" target="YpiQ6v-Z-xjZzgeYDtnH-28" edge="1">
          <mxGeometry width="50" height="50" relative="1" as="geometry">
            <mxPoint x="4046" y="-278" as="sourcePoint" />
            <mxPoint x="4034" y="-312" as="targetPoint" />
          </mxGeometry>
        </mxCell>
        <mxCell id="YpiQ6v-Z-xjZzgeYDtnH-33" value="" style="endArrow=classic;html=1;rounded=0;strokeWidth=2;" parent="1" source="YpiQ6v-Z-xjZzgeYDtnH-26" target="YpiQ6v-Z-xjZzgeYDtnH-8" edge="1">
          <mxGeometry width="50" height="50" relative="1" as="geometry">
            <mxPoint x="3972" y="-151" as="sourcePoint" />
            <mxPoint x="3898" y="-174" as="targetPoint" />
          </mxGeometry>
        </mxCell>
        <mxCell id="YpiQ6v-Z-xjZzgeYDtnH-34" value="" style="endArrow=classic;html=1;rounded=0;strokeWidth=2;" parent="1" source="YpiQ6v-Z-xjZzgeYDtnH-27" target="YpiQ6v-Z-xjZzgeYDtnH-8" edge="1">
          <mxGeometry width="50" height="50" relative="1" as="geometry">
            <mxPoint x="3855" y="-225" as="sourcePoint" />
            <mxPoint x="3835" y="-380" as="targetPoint" />
          </mxGeometry>
        </mxCell>
        <mxCell id="YpiQ6v-Z-xjZzgeYDtnH-36" value="&lt;font style=&quot;font-size: 14px;&quot;&gt;$$r_2$$&lt;/font&gt;" style="ellipse;whiteSpace=wrap;html=1;aspect=fixed;strokeWidth=2;strokeColor=#d6b656;fillColor=#fff2cc;direction=south;rotation=0;" parent="1" vertex="1">
          <mxGeometry x="4090" y="-510" width="80" height="80" as="geometry" />
        </mxCell>
        <mxCell id="YpiQ6v-Z-xjZzgeYDtnH-37" value="" style="endArrow=classic;html=1;rounded=0;strokeWidth=2;" parent="1" source="YpiQ6v-Z-xjZzgeYDtnH-14" target="YpiQ6v-Z-xjZzgeYDtnH-36" edge="1">
          <mxGeometry width="50" height="50" relative="1" as="geometry">
            <mxPoint x="3976" y="-523" as="sourcePoint" />
            <mxPoint x="3964" y="-492" as="targetPoint" />
          </mxGeometry>
        </mxCell>
        <mxCell id="YpiQ6v-Z-xjZzgeYDtnH-38" value="" style="endArrow=classic;html=1;rounded=0;strokeWidth=2;" parent="1" source="YpiQ6v-Z-xjZzgeYDtnH-28" target="YpiQ6v-Z-xjZzgeYDtnH-36" edge="1">
          <mxGeometry width="50" height="50" relative="1" as="geometry">
            <mxPoint x="4023" y="-538" as="sourcePoint" />
            <mxPoint x="4107" y="-482" as="targetPoint" />
          </mxGeometry>
        </mxCell>
        <mxCell id="YpiQ6v-Z-xjZzgeYDtnH-39" value="&lt;font style=&quot;font-size: 14px;&quot;&gt;$$c_{fluid}.$$&lt;/font&gt;" style="ellipse;whiteSpace=wrap;html=1;aspect=fixed;strokeWidth=2;strokeColor=#d6b656;fillColor=#fff2cc;direction=south;rotation=0;" parent="1" vertex="1">
          <mxGeometry x="3540" y="-580" width="80" height="80" as="geometry" />
        </mxCell>
        <mxCell id="YpiQ6v-Z-xjZzgeYDtnH-40" value="&lt;font style=&quot;font-size: 14px;&quot;&gt;$$T_{fluid}.$$&lt;/font&gt;" style="ellipse;whiteSpace=wrap;html=1;aspect=fixed;strokeWidth=2;strokeColor=#d6b656;fillColor=#fff2cc;direction=south;rotation=0;" parent="1" vertex="1">
          <mxGeometry x="3650" y="-620" width="80" height="80" as="geometry" />
        </mxCell>
        <mxCell id="YpiQ6v-Z-xjZzgeYDtnH-41" value="&lt;font style=&quot;font-size: 14px;&quot;&gt;$$P_{fluid}.$$&lt;/font&gt;" style="ellipse;whiteSpace=wrap;html=1;aspect=fixed;strokeWidth=2;strokeColor=#d6b656;fillColor=#fff2cc;direction=south;rotation=0;" parent="1" vertex="1">
          <mxGeometry x="3745" y="-710" width="80" height="80" as="geometry" />
        </mxCell>
        <mxCell id="YpiQ6v-Z-xjZzgeYDtnH-42" value="" style="endArrow=none;dashed=1;html=1;rounded=0;" parent="1" source="YpiQ6v-Z-xjZzgeYDtnH-5" target="YpiQ6v-Z-xjZzgeYDtnH-6" edge="1">
          <mxGeometry width="50" height="50" relative="1" as="geometry">
            <mxPoint x="3500" y="-380" as="sourcePoint" />
            <mxPoint x="3550" y="-430" as="targetPoint" />
          </mxGeometry>
        </mxCell>
        <mxCell id="YpiQ6v-Z-xjZzgeYDtnH-43" value="" style="endArrow=none;dashed=1;html=1;rounded=0;" parent="1" source="YpiQ6v-Z-xjZzgeYDtnH-5" target="YpiQ6v-Z-xjZzgeYDtnH-7" edge="1">
          <mxGeometry width="50" height="50" relative="1" as="geometry">
            <mxPoint x="3692" y="-283" as="sourcePoint" />
            <mxPoint x="3848" y="-517" as="targetPoint" />
          </mxGeometry>
        </mxCell>
        <mxCell id="YpiQ6v-Z-xjZzgeYDtnH-44" value="" style="group" parent="1" vertex="1" connectable="0">
          <mxGeometry x="3460" y="-1000" width="200" height="150" as="geometry" />
        </mxCell>
        <mxCell id="YpiQ6v-Z-xjZzgeYDtnH-1" value="" style="rounded=0;whiteSpace=wrap;html=1;" parent="YpiQ6v-Z-xjZzgeYDtnH-44" vertex="1">
          <mxGeometry y="15" width="200" height="100" as="geometry" />
        </mxCell>
        <mxCell id="YpiQ6v-Z-xjZzgeYDtnH-2" value="" style="curved=1;endArrow=classic;html=1;rounded=0;strokeColor=#FF3333;" parent="YpiQ6v-Z-xjZzgeYDtnH-44" edge="1">
          <mxGeometry width="50" height="50" relative="1" as="geometry">
            <mxPoint x="40" y="130" as="sourcePoint" />
            <mxPoint x="190" y="-20" as="targetPoint" />
            <Array as="points">
              <mxPoint x="40" y="80" />
              <mxPoint x="60" y="20" />
              <mxPoint x="100" y="130" />
              <mxPoint x="130" />
              <mxPoint x="170" y="150" />
            </Array>
          </mxGeometry>
        </mxCell>
        <mxCell id="YpiQ6v-Z-xjZzgeYDtnH-3" value="" style="curved=1;endArrow=classic;html=1;rounded=0;strokeColor=#3399FF;" parent="YpiQ6v-Z-xjZzgeYDtnH-44" edge="1">
          <mxGeometry width="50" height="50" relative="1" as="geometry">
            <mxPoint x="160" y="-20" as="sourcePoint" />
            <mxPoint x="10" y="130" as="targetPoint" />
            <Array as="points">
              <mxPoint x="140" y="150" />
              <mxPoint x="100" />
              <mxPoint x="70" y="130" />
              <mxPoint x="30" y="20" />
              <mxPoint x="10" y="80" />
            </Array>
          </mxGeometry>
        </mxCell>
        <mxCell id="YpiQ6v-Z-xjZzgeYDtnH-45" value="" style="endArrow=classic;html=1;rounded=0;strokeWidth=2;" parent="1" source="YpiQ6v-Z-xjZzgeYDtnH-24" target="YpiQ6v-Z-xjZzgeYDtnH-39" edge="1">
          <mxGeometry width="50" height="50" relative="1" as="geometry">
            <mxPoint x="3699" y="-278" as="sourcePoint" />
            <mxPoint x="3806" y="-382" as="targetPoint" />
          </mxGeometry>
        </mxCell>
        <mxCell id="YpiQ6v-Z-xjZzgeYDtnH-46" value="" style="endArrow=classic;html=1;rounded=0;strokeWidth=2;" parent="1" source="YpiQ6v-Z-xjZzgeYDtnH-24" target="YpiQ6v-Z-xjZzgeYDtnH-40" edge="1">
          <mxGeometry width="50" height="50" relative="1" as="geometry">
            <mxPoint x="3621" y="-661" as="sourcePoint" />
            <mxPoint x="3599" y="-569" as="targetPoint" />
          </mxGeometry>
        </mxCell>
        <mxCell id="YpiQ6v-Z-xjZzgeYDtnH-47" value="" style="endArrow=classic;html=1;rounded=0;strokeWidth=2;" parent="1" source="YpiQ6v-Z-xjZzgeYDtnH-24" target="YpiQ6v-Z-xjZzgeYDtnH-41" edge="1">
          <mxGeometry width="50" height="50" relative="1" as="geometry">
            <mxPoint x="3649" y="-665" as="sourcePoint" />
            <mxPoint x="3681" y="-605" as="targetPoint" />
          </mxGeometry>
        </mxCell>
        <mxCell id="YpiQ6v-Z-xjZzgeYDtnH-48" value="&lt;font style=&quot;font-size: 14px;&quot;&gt;$$r_1$$&lt;/font&gt;" style="ellipse;whiteSpace=wrap;html=1;aspect=fixed;strokeWidth=2;strokeColor=#d6b656;fillColor=#fff2cc;direction=south;rotation=0;" parent="1" vertex="1">
          <mxGeometry x="3990" y="-790" width="80" height="80" as="geometry" />
        </mxCell>
        <mxCell id="YpiQ6v-Z-xjZzgeYDtnH-49" value="" style="endArrow=classic;html=1;rounded=0;strokeWidth=2;" parent="1" source="YpiQ6v-Z-xjZzgeYDtnH-39" target="YpiQ6v-Z-xjZzgeYDtnH-8" edge="1">
          <mxGeometry width="50" height="50" relative="1" as="geometry">
            <mxPoint x="3621" y="-661" as="sourcePoint" />
            <mxPoint x="3599" y="-569" as="targetPoint" />
          </mxGeometry>
        </mxCell>
        <mxCell id="YpiQ6v-Z-xjZzgeYDtnH-50" value="" style="endArrow=classic;html=1;rounded=0;strokeWidth=2;" parent="1" source="YpiQ6v-Z-xjZzgeYDtnH-40" target="YpiQ6v-Z-xjZzgeYDtnH-8" edge="1">
          <mxGeometry width="50" height="50" relative="1" as="geometry">
            <mxPoint x="3626" y="-512" as="sourcePoint" />
            <mxPoint x="3799" y="-428" as="targetPoint" />
          </mxGeometry>
        </mxCell>
        <mxCell id="YpiQ6v-Z-xjZzgeYDtnH-51" value="" style="endArrow=classic;html=1;rounded=0;strokeWidth=2;" parent="1" source="YpiQ6v-Z-xjZzgeYDtnH-41" target="YpiQ6v-Z-xjZzgeYDtnH-8" edge="1">
          <mxGeometry width="50" height="50" relative="1" as="geometry">
            <mxPoint x="3726" y="-539" as="sourcePoint" />
            <mxPoint x="3809" y="-441" as="targetPoint" />
          </mxGeometry>
        </mxCell>
        <mxCell id="YpiQ6v-Z-xjZzgeYDtnH-52" value="" style="endArrow=classic;html=1;rounded=0;strokeWidth=2;" parent="1" source="YpiQ6v-Z-xjZzgeYDtnH-41" target="YpiQ6v-Z-xjZzgeYDtnH-48" edge="1">
          <mxGeometry width="50" height="50" relative="1" as="geometry">
            <mxPoint x="3801" y="-620" as="sourcePoint" />
            <mxPoint x="3829" y="-449" as="targetPoint" />
          </mxGeometry>
        </mxCell>
        <mxCell id="YpiQ6v-Z-xjZzgeYDtnH-53" value="" style="endArrow=classic;html=1;rounded=0;strokeWidth=2;" parent="1" source="YpiQ6v-Z-xjZzgeYDtnH-48" target="YpiQ6v-Z-xjZzgeYDtnH-8" edge="1">
          <mxGeometry width="50" height="50" relative="1" as="geometry">
            <mxPoint x="3832" y="-676" as="sourcePoint" />
            <mxPoint x="3893" y="-704" as="targetPoint" />
          </mxGeometry>
        </mxCell>
        <mxCell id="YpiQ6v-Z-xjZzgeYDtnH-55" value="&lt;font style=&quot;font-size: 12px;&quot;&gt;Dust&lt;/font&gt;" style="ellipse;whiteSpace=wrap;html=1;aspect=fixed;strokeWidth=2;strokeColor=#b85450;fillColor=#ffffff;dashed=1;" parent="1" vertex="1">
          <mxGeometry x="3660" y="-130" width="50" height="50" as="geometry" />
        </mxCell>
        <mxCell id="YpiQ6v-Z-xjZzgeYDtnH-56" value="" style="endArrow=classic;html=1;rounded=0;strokeColor=#B85450;dashed=1;dashPattern=8 8;strokeWidth=2;" parent="1" source="YpiQ6v-Z-xjZzgeYDtnH-20" target="YpiQ6v-Z-xjZzgeYDtnH-55" edge="1">
          <mxGeometry width="50" height="50" relative="1" as="geometry">
            <mxPoint x="3479" y="-211" as="sourcePoint" />
            <mxPoint x="3511" y="-220" as="targetPoint" />
          </mxGeometry>
        </mxCell>
        <mxCell id="YpiQ6v-Z-xjZzgeYDtnH-58" value="" style="endArrow=classic;html=1;rounded=0;strokeColor=#B85450;dashed=1;dashPattern=8 8;strokeWidth=2;" parent="1" source="YpiQ6v-Z-xjZzgeYDtnH-55" target="YpiQ6v-Z-xjZzgeYDtnH-26" edge="1">
          <mxGeometry width="50" height="50" relative="1" as="geometry">
            <mxPoint x="3748" y="-180" as="sourcePoint" />
            <mxPoint x="3952" y="6" as="targetPoint" />
          </mxGeometry>
        </mxCell>
        <mxCell id="YpiQ6v-Z-xjZzgeYDtnH-59" value="" style="endArrow=classic;html=1;rounded=0;strokeColor=#B85450;dashed=1;dashPattern=8 8;strokeWidth=2;" parent="1" source="YpiQ6v-Z-xjZzgeYDtnH-55" target="YpiQ6v-Z-xjZzgeYDtnH-39" edge="1">
          <mxGeometry width="50" height="50" relative="1" as="geometry">
            <mxPoint x="3708" y="-6" as="sourcePoint" />
            <mxPoint x="3819" y="-191" as="targetPoint" />
          </mxGeometry>
        </mxCell>
        <mxCell id="YpiQ6v-Z-xjZzgeYDtnH-60" value="" style="endArrow=classic;html=1;rounded=0;strokeColor=#B85450;dashed=1;dashPattern=8 8;strokeWidth=2;" parent="1" source="YpiQ6v-Z-xjZzgeYDtnH-21" target="YpiQ6v-Z-xjZzgeYDtnH-55" edge="1">
          <mxGeometry width="50" height="50" relative="1" as="geometry">
            <mxPoint x="3527" y="-192" as="sourcePoint" />
            <mxPoint x="3673" y="-108" as="targetPoint" />
          </mxGeometry>
        </mxCell>
      </root>
    </mxGraphModel>
  </diagram>
  <diagram id="h-vN8neKalXIcDyOrBEc" name="Heat Exchanger - C">
    <mxGraphModel dx="-1037" dy="1955" grid="1" gridSize="10" guides="1" tooltips="1" connect="1" arrows="1" fold="1" page="1" pageScale="1" pageWidth="850" pageHeight="1100" math="1" shadow="0">
      <root>
        <mxCell id="0" />
        <mxCell id="1" parent="0" />
        <mxCell id="WysfXRv8Ii81qzlpB0n0-62" value="" style="ellipse;whiteSpace=wrap;html=1;strokeWidth=3;" parent="1" vertex="1">
          <mxGeometry x="3913" y="-255" width="370" height="240" as="geometry" />
        </mxCell>
        <mxCell id="WysfXRv8Ii81qzlpB0n0-60" value="" style="ellipse;whiteSpace=wrap;html=1;strokeWidth=3;" parent="1" vertex="1">
          <mxGeometry x="3400" y="-880" width="445" height="260" as="geometry" />
        </mxCell>
        <mxCell id="WysfXRv8Ii81qzlpB0n0-58" value="" style="ellipse;whiteSpace=wrap;html=1;strokeWidth=3;" parent="1" vertex="1">
          <mxGeometry x="3431.5" y="-569" width="518.5" height="528" as="geometry" />
        </mxCell>
        <mxCell id="WysfXRv8Ii81qzlpB0n0-59" value="&lt;div style=&quot;text-align: center;&quot;&gt;&lt;font style=&quot;font-size: 48px;&quot;&gt;Heat Exchanger&lt;/font&gt;&lt;/div&gt;" style="text;whiteSpace=wrap;html=1;fillColor=none;" parent="1" vertex="1">
          <mxGeometry x="3400" y="-550" width="155" height="40" as="geometry" />
        </mxCell>
        <mxCell id="WysfXRv8Ii81qzlpB0n0-1" value="&lt;font style=&quot;font-size: 14px;&quot;&gt;Hardware&lt;/font&gt;" style="ellipse;whiteSpace=wrap;html=1;aspect=fixed;fillColor=#CCCCCC;strokeColor=#666666;strokeWidth=2;fontColor=#333333;" parent="1" vertex="1">
          <mxGeometry x="3690" y="-380" width="80" height="80" as="geometry" />
        </mxCell>
        <mxCell id="WysfXRv8Ii81qzlpB0n0-3" value="&lt;span style=&quot;font-size: 14px;&quot;&gt;Tubing 1&amp;nbsp;&lt;/span&gt;" style="ellipse;whiteSpace=wrap;html=1;aspect=fixed;fillColor=#CCCCCC;strokeColor=#666666;strokeWidth=2;fontColor=#333333;" parent="1" vertex="1">
          <mxGeometry x="3645" y="-510" width="80" height="80" as="geometry" />
        </mxCell>
        <mxCell id="WysfXRv8Ii81qzlpB0n0-4" value="&lt;span style=&quot;font-size: 14px;&quot;&gt;Tubing 2&lt;/span&gt;" style="ellipse;whiteSpace=wrap;html=1;aspect=fixed;fillColor=#CCCCCC;strokeColor=#666666;strokeWidth=2;fontColor=#333333;" parent="1" vertex="1">
          <mxGeometry x="3785" y="-310" width="80" height="80" as="geometry" />
        </mxCell>
        <mxCell id="WysfXRv8Ii81qzlpB0n0-5" value="&lt;font style=&quot;font-size: 14px;&quot;&gt;$$Tr_{heat}$$&lt;/font&gt;" style="ellipse;whiteSpace=wrap;html=1;aspect=fixed;fillColor=#A9C4EB;strokeWidth=2;" parent="1" vertex="1">
          <mxGeometry x="3785" y="-460" width="80" height="80" as="geometry" />
        </mxCell>
        <mxCell id="WysfXRv8Ii81qzlpB0n0-6" value="" style="endArrow=classic;html=1;rounded=0;strokeWidth=2;" parent="1" source="WysfXRv8Ii81qzlpB0n0-4" target="WysfXRv8Ii81qzlpB0n0-5" edge="1">
          <mxGeometry width="50" height="50" relative="1" as="geometry">
            <mxPoint x="4048" y="268" as="sourcePoint" />
            <mxPoint x="4082" y="257" as="targetPoint" />
          </mxGeometry>
        </mxCell>
        <mxCell id="WysfXRv8Ii81qzlpB0n0-7" value="" style="endArrow=classic;html=1;rounded=0;strokeWidth=2;" parent="1" source="WysfXRv8Ii81qzlpB0n0-1" target="WysfXRv8Ii81qzlpB0n0-5" edge="1">
          <mxGeometry width="50" height="50" relative="1" as="geometry">
            <mxPoint x="3830" y="-270" as="sourcePoint" />
            <mxPoint x="3830" y="-380" as="targetPoint" />
          </mxGeometry>
        </mxCell>
        <mxCell id="WysfXRv8Ii81qzlpB0n0-8" value="" style="endArrow=classic;html=1;rounded=0;strokeWidth=2;" parent="1" source="WysfXRv8Ii81qzlpB0n0-3" target="WysfXRv8Ii81qzlpB0n0-5" edge="1">
          <mxGeometry width="50" height="50" relative="1" as="geometry">
            <mxPoint x="3709" y="-307" as="sourcePoint" />
            <mxPoint x="3801" y="-393" as="targetPoint" />
          </mxGeometry>
        </mxCell>
        <mxCell id="WysfXRv8Ii81qzlpB0n0-9" value="&lt;font style=&quot;font-size: 14px;&quot;&gt;$$A$$&lt;/font&gt;" style="ellipse;whiteSpace=wrap;html=1;aspect=fixed;fillColor=#f8cecc;strokeColor=#b85450;strokeWidth=2;" parent="1" vertex="1">
          <mxGeometry x="3680" y="-270" width="80" height="80" as="geometry" />
        </mxCell>
        <mxCell id="WysfXRv8Ii81qzlpB0n0-10" value="&lt;font style=&quot;font-size: 14px;&quot;&gt;$$A$$&lt;/font&gt;" style="ellipse;whiteSpace=wrap;html=1;aspect=fixed;fillColor=#f8cecc;strokeColor=#b85450;strokeWidth=2;" parent="1" vertex="1">
          <mxGeometry x="3890" y="-580" width="80" height="80" as="geometry" />
        </mxCell>
        <mxCell id="WysfXRv8Ii81qzlpB0n0-11" value="" style="endArrow=classic;html=1;rounded=0;strokeWidth=2;" parent="1" source="WysfXRv8Ii81qzlpB0n0-10" target="WysfXRv8Ii81qzlpB0n0-4" edge="1">
          <mxGeometry width="50" height="50" relative="1" as="geometry">
            <mxPoint x="3912" y="-444" as="sourcePoint" />
            <mxPoint x="3868" y="-431" as="targetPoint" />
          </mxGeometry>
        </mxCell>
        <mxCell id="WysfXRv8Ii81qzlpB0n0-12" value="" style="endArrow=classic;html=1;rounded=0;strokeWidth=2;" parent="1" source="WysfXRv8Ii81qzlpB0n0-10" target="WysfXRv8Ii81qzlpB0n0-3" edge="1">
          <mxGeometry width="50" height="50" relative="1" as="geometry">
            <mxPoint x="3976" y="-523" as="sourcePoint" />
            <mxPoint x="3964" y="-492" as="targetPoint" />
          </mxGeometry>
        </mxCell>
        <mxCell id="WysfXRv8Ii81qzlpB0n0-13" value="" style="endArrow=classic;html=1;rounded=0;strokeWidth=2;" parent="1" source="WysfXRv8Ii81qzlpB0n0-9" target="WysfXRv8Ii81qzlpB0n0-1" edge="1">
          <mxGeometry width="50" height="50" relative="1" as="geometry">
            <mxPoint x="3951" y="-552" as="sourcePoint" />
            <mxPoint x="3670" y="-280" as="targetPoint" />
          </mxGeometry>
        </mxCell>
        <mxCell id="WysfXRv8Ii81qzlpB0n0-14" value="&lt;font style=&quot;font-size: 14px;&quot;&gt;$$D$$&lt;/font&gt;" style="ellipse;whiteSpace=wrap;html=1;aspect=fixed;fillColor=#f8cecc;strokeColor=#b85450;strokeWidth=2;" parent="1" vertex="1">
          <mxGeometry x="3520" y="-360" width="80" height="80" as="geometry" />
        </mxCell>
        <mxCell id="WysfXRv8Ii81qzlpB0n0-15" value="" style="endArrow=classic;html=1;rounded=0;strokeWidth=2;" parent="1" source="WysfXRv8Ii81qzlpB0n0-14" target="WysfXRv8Ii81qzlpB0n0-1" edge="1">
          <mxGeometry width="50" height="50" relative="1" as="geometry">
            <mxPoint x="3629" y="-175" as="sourcePoint" />
            <mxPoint x="3651" y="-215" as="targetPoint" />
          </mxGeometry>
        </mxCell>
        <mxCell id="WysfXRv8Ii81qzlpB0n0-16" value="&lt;font style=&quot;font-size: 12px;&quot;&gt;Meteorite Impact&lt;/font&gt;" style="ellipse;whiteSpace=wrap;html=1;aspect=fixed;strokeWidth=2;strokeColor=#b85450;fillColor=#ffffff;dashed=1;" parent="1" vertex="1">
          <mxGeometry x="3470" y="-240" width="50" height="50" as="geometry" />
        </mxCell>
        <mxCell id="WysfXRv8Ii81qzlpB0n0-17" value="Interact" style="ellipse;whiteSpace=wrap;html=1;aspect=fixed;strokeWidth=2;strokeColor=#b85450;fillColor=#ffffff;dashed=1;" parent="1" vertex="1">
          <mxGeometry x="3580" y="-255" width="50" height="50" as="geometry" />
        </mxCell>
        <mxCell id="WysfXRv8Ii81qzlpB0n0-18" value="" style="endArrow=classic;html=1;rounded=0;strokeColor=#B85450;dashed=1;dashPattern=8 8;strokeWidth=2;" parent="1" source="WysfXRv8Ii81qzlpB0n0-16" target="WysfXRv8Ii81qzlpB0n0-14" edge="1">
          <mxGeometry width="50" height="50" relative="1" as="geometry">
            <mxPoint x="4010" y="370" as="sourcePoint" />
            <mxPoint x="4010" y="320" as="targetPoint" />
          </mxGeometry>
        </mxCell>
        <mxCell id="WysfXRv8Ii81qzlpB0n0-19" value="" style="endArrow=classic;html=1;rounded=0;strokeColor=#B85450;dashed=1;dashPattern=8 8;strokeWidth=2;" parent="1" source="WysfXRv8Ii81qzlpB0n0-17" target="WysfXRv8Ii81qzlpB0n0-14" edge="1">
          <mxGeometry width="50" height="50" relative="1" as="geometry">
            <mxPoint x="3479" y="-211" as="sourcePoint" />
            <mxPoint x="3511" y="-220" as="targetPoint" />
          </mxGeometry>
        </mxCell>
        <mxCell id="WysfXRv8Ii81qzlpB0n0-20" value="&lt;span style=&quot;font-size: 14px;&quot;&gt;Fluid C.&lt;/span&gt;" style="ellipse;whiteSpace=wrap;html=1;aspect=fixed;fillColor=#CCCCCC;strokeColor=#666666;strokeWidth=2;fontColor=#333333;" parent="1" vertex="1">
          <mxGeometry x="3520" y="-840" width="80" height="80" as="geometry" />
        </mxCell>
        <mxCell id="WysfXRv8Ii81qzlpB0n0-21" value="&lt;span style=&quot;font-size: 14px;&quot;&gt;Fluid H.&lt;/span&gt;" style="ellipse;whiteSpace=wrap;html=1;aspect=fixed;fillColor=#CCCCCC;strokeColor=#666666;strokeWidth=2;fontColor=#333333;" parent="1" vertex="1">
          <mxGeometry x="4070" y="-120" width="80" height="80" as="geometry" />
        </mxCell>
        <mxCell id="WysfXRv8Ii81qzlpB0n0-22" value="&lt;font style=&quot;font-size: 14px;&quot;&gt;$$c_{fluid}.$$&lt;/font&gt;" style="ellipse;whiteSpace=wrap;html=1;aspect=fixed;strokeWidth=2;strokeColor=#d6b656;fillColor=#fff2cc;direction=south;rotation=0;" parent="1" vertex="1">
          <mxGeometry x="3960" y="-130" width="80" height="80" as="geometry" />
        </mxCell>
        <mxCell id="WysfXRv8Ii81qzlpB0n0-23" value="&lt;font style=&quot;font-size: 14px;&quot;&gt;$$T_{fluid}.$$&lt;/font&gt;" style="ellipse;whiteSpace=wrap;html=1;aspect=fixed;strokeWidth=2;strokeColor=#d6b656;fillColor=#fff2cc;direction=south;rotation=0;" parent="1" vertex="1">
          <mxGeometry x="4010" y="-210" width="80" height="80" as="geometry" />
        </mxCell>
        <mxCell id="WysfXRv8Ii81qzlpB0n0-24" value="&lt;font style=&quot;font-size: 14px;&quot;&gt;$$P_{fluid}.$$&lt;/font&gt;" style="ellipse;whiteSpace=wrap;html=1;aspect=fixed;strokeWidth=2;strokeColor=#d6b656;fillColor=#fff2cc;direction=south;rotation=0;" parent="1" vertex="1">
          <mxGeometry x="4110" y="-230" width="80" height="80" as="geometry" />
        </mxCell>
        <mxCell id="WysfXRv8Ii81qzlpB0n0-25" value="" style="endArrow=classic;html=1;rounded=0;strokeWidth=2;" parent="1" source="WysfXRv8Ii81qzlpB0n0-21" target="WysfXRv8Ii81qzlpB0n0-22" edge="1">
          <mxGeometry width="50" height="50" relative="1" as="geometry">
            <mxPoint x="3976" y="-523" as="sourcePoint" />
            <mxPoint x="3964" y="-492" as="targetPoint" />
          </mxGeometry>
        </mxCell>
        <mxCell id="WysfXRv8Ii81qzlpB0n0-26" value="" style="endArrow=classic;html=1;rounded=0;strokeWidth=2;" parent="1" source="WysfXRv8Ii81qzlpB0n0-21" target="WysfXRv8Ii81qzlpB0n0-23" edge="1">
          <mxGeometry width="50" height="50" relative="1" as="geometry">
            <mxPoint x="4022" y="-251" as="sourcePoint" />
            <mxPoint x="3948" y="-274" as="targetPoint" />
          </mxGeometry>
        </mxCell>
        <mxCell id="WysfXRv8Ii81qzlpB0n0-27" value="" style="endArrow=classic;html=1;rounded=0;strokeWidth=2;" parent="1" source="WysfXRv8Ii81qzlpB0n0-21" target="WysfXRv8Ii81qzlpB0n0-24" edge="1">
          <mxGeometry width="50" height="50" relative="1" as="geometry">
            <mxPoint x="4046" y="-278" as="sourcePoint" />
            <mxPoint x="4034" y="-312" as="targetPoint" />
          </mxGeometry>
        </mxCell>
        <mxCell id="WysfXRv8Ii81qzlpB0n0-28" value="" style="endArrow=classic;html=1;rounded=0;strokeWidth=2;" parent="1" source="WysfXRv8Ii81qzlpB0n0-22" target="WysfXRv8Ii81qzlpB0n0-5" edge="1">
          <mxGeometry width="50" height="50" relative="1" as="geometry">
            <mxPoint x="3972" y="-151" as="sourcePoint" />
            <mxPoint x="3898" y="-174" as="targetPoint" />
          </mxGeometry>
        </mxCell>
        <mxCell id="WysfXRv8Ii81qzlpB0n0-29" value="" style="endArrow=classic;html=1;rounded=0;strokeWidth=2;" parent="1" source="WysfXRv8Ii81qzlpB0n0-23" target="WysfXRv8Ii81qzlpB0n0-5" edge="1">
          <mxGeometry width="50" height="50" relative="1" as="geometry">
            <mxPoint x="3855" y="-225" as="sourcePoint" />
            <mxPoint x="3835" y="-380" as="targetPoint" />
          </mxGeometry>
        </mxCell>
        <mxCell id="WysfXRv8Ii81qzlpB0n0-30" value="&lt;font style=&quot;font-size: 14px;&quot;&gt;$$r_2$$&lt;/font&gt;" style="ellipse;whiteSpace=wrap;html=1;aspect=fixed;strokeWidth=2;strokeColor=#d6b656;fillColor=#fff2cc;direction=south;rotation=0;" parent="1" vertex="1">
          <mxGeometry x="3890" y="-390" width="80" height="80" as="geometry" />
        </mxCell>
        <mxCell id="WysfXRv8Ii81qzlpB0n0-32" value="" style="endArrow=classic;html=1;rounded=0;strokeWidth=2;" parent="1" source="WysfXRv8Ii81qzlpB0n0-24" target="WysfXRv8Ii81qzlpB0n0-30" edge="1">
          <mxGeometry width="50" height="50" relative="1" as="geometry">
            <mxPoint x="4023" y="-538" as="sourcePoint" />
            <mxPoint x="4107" y="-482" as="targetPoint" />
          </mxGeometry>
        </mxCell>
        <mxCell id="WysfXRv8Ii81qzlpB0n0-33" value="&lt;font style=&quot;font-size: 14px;&quot;&gt;$$c_{fluid}.$$&lt;/font&gt;" style="ellipse;whiteSpace=wrap;html=1;aspect=fixed;strokeWidth=2;strokeColor=#d6b656;fillColor=#fff2cc;direction=south;rotation=0;" parent="1" vertex="1">
          <mxGeometry x="3490" y="-730" width="80" height="80" as="geometry" />
        </mxCell>
        <mxCell id="WysfXRv8Ii81qzlpB0n0-34" value="&lt;font style=&quot;font-size: 14px;&quot;&gt;$$T_{fluid}.$$&lt;/font&gt;" style="ellipse;whiteSpace=wrap;html=1;aspect=fixed;strokeWidth=2;strokeColor=#d6b656;fillColor=#fff2cc;direction=south;rotation=0;" parent="1" vertex="1">
          <mxGeometry x="3580" y="-740" width="80" height="80" as="geometry" />
        </mxCell>
        <mxCell id="WysfXRv8Ii81qzlpB0n0-35" value="&lt;font style=&quot;font-size: 14px;&quot;&gt;$$P_{fluid}.$$&lt;/font&gt;" style="ellipse;whiteSpace=wrap;html=1;aspect=fixed;strokeWidth=2;strokeColor=#d6b656;fillColor=#fff2cc;direction=south;rotation=0;" parent="1" vertex="1">
          <mxGeometry x="3630" y="-840" width="80" height="80" as="geometry" />
        </mxCell>
        <mxCell id="WysfXRv8Ii81qzlpB0n0-36" value="" style="endArrow=none;dashed=1;html=1;rounded=0;" parent="1" source="WysfXRv8Ii81qzlpB0n0-1" target="WysfXRv8Ii81qzlpB0n0-3" edge="1">
          <mxGeometry width="50" height="50" relative="1" as="geometry">
            <mxPoint x="3500" y="-380" as="sourcePoint" />
            <mxPoint x="3550" y="-430" as="targetPoint" />
          </mxGeometry>
        </mxCell>
        <mxCell id="WysfXRv8Ii81qzlpB0n0-37" value="" style="endArrow=none;dashed=1;html=1;rounded=0;" parent="1" source="WysfXRv8Ii81qzlpB0n0-1" target="WysfXRv8Ii81qzlpB0n0-4" edge="1">
          <mxGeometry width="50" height="50" relative="1" as="geometry">
            <mxPoint x="3692" y="-283" as="sourcePoint" />
            <mxPoint x="3848" y="-517" as="targetPoint" />
          </mxGeometry>
        </mxCell>
        <mxCell id="WysfXRv8Ii81qzlpB0n0-42" value="" style="endArrow=classic;html=1;rounded=0;strokeWidth=2;" parent="1" source="WysfXRv8Ii81qzlpB0n0-20" target="WysfXRv8Ii81qzlpB0n0-33" edge="1">
          <mxGeometry width="50" height="50" relative="1" as="geometry">
            <mxPoint x="3699" y="-278" as="sourcePoint" />
            <mxPoint x="3806" y="-382" as="targetPoint" />
          </mxGeometry>
        </mxCell>
        <mxCell id="WysfXRv8Ii81qzlpB0n0-43" value="" style="endArrow=classic;html=1;rounded=0;strokeWidth=2;" parent="1" source="WysfXRv8Ii81qzlpB0n0-20" target="WysfXRv8Ii81qzlpB0n0-34" edge="1">
          <mxGeometry width="50" height="50" relative="1" as="geometry">
            <mxPoint x="3621" y="-661" as="sourcePoint" />
            <mxPoint x="3599" y="-569" as="targetPoint" />
          </mxGeometry>
        </mxCell>
        <mxCell id="WysfXRv8Ii81qzlpB0n0-44" value="" style="endArrow=classic;html=1;rounded=0;strokeWidth=2;" parent="1" source="WysfXRv8Ii81qzlpB0n0-20" target="WysfXRv8Ii81qzlpB0n0-35" edge="1">
          <mxGeometry width="50" height="50" relative="1" as="geometry">
            <mxPoint x="3649" y="-665" as="sourcePoint" />
            <mxPoint x="3681" y="-605" as="targetPoint" />
          </mxGeometry>
        </mxCell>
        <mxCell id="WysfXRv8Ii81qzlpB0n0-45" value="&lt;font style=&quot;font-size: 14px;&quot;&gt;$$r_1$$&lt;/font&gt;" style="ellipse;whiteSpace=wrap;html=1;aspect=fixed;strokeWidth=2;strokeColor=#d6b656;fillColor=#fff2cc;direction=south;rotation=0;" parent="1" vertex="1">
          <mxGeometry x="3745" y="-600" width="80" height="80" as="geometry" />
        </mxCell>
        <mxCell id="WysfXRv8Ii81qzlpB0n0-46" value="" style="endArrow=classic;html=1;rounded=0;strokeWidth=2;" parent="1" source="WysfXRv8Ii81qzlpB0n0-33" target="WysfXRv8Ii81qzlpB0n0-5" edge="1">
          <mxGeometry width="50" height="50" relative="1" as="geometry">
            <mxPoint x="3621" y="-661" as="sourcePoint" />
            <mxPoint x="3599" y="-569" as="targetPoint" />
          </mxGeometry>
        </mxCell>
        <mxCell id="WysfXRv8Ii81qzlpB0n0-47" value="" style="endArrow=classic;html=1;rounded=0;strokeWidth=2;" parent="1" source="WysfXRv8Ii81qzlpB0n0-34" target="WysfXRv8Ii81qzlpB0n0-5" edge="1">
          <mxGeometry width="50" height="50" relative="1" as="geometry">
            <mxPoint x="3626" y="-512" as="sourcePoint" />
            <mxPoint x="3799" y="-428" as="targetPoint" />
          </mxGeometry>
        </mxCell>
        <mxCell id="WysfXRv8Ii81qzlpB0n0-48" value="" style="endArrow=classic;html=1;rounded=0;strokeWidth=2;" parent="1" source="WysfXRv8Ii81qzlpB0n0-35" target="WysfXRv8Ii81qzlpB0n0-3" edge="1">
          <mxGeometry width="50" height="50" relative="1" as="geometry">
            <mxPoint x="3726" y="-539" as="sourcePoint" />
            <mxPoint x="3809" y="-441" as="targetPoint" />
          </mxGeometry>
        </mxCell>
        <mxCell id="WysfXRv8Ii81qzlpB0n0-49" value="" style="endArrow=classic;html=1;rounded=0;strokeWidth=2;" parent="1" source="WysfXRv8Ii81qzlpB0n0-35" target="WysfXRv8Ii81qzlpB0n0-45" edge="1">
          <mxGeometry width="50" height="50" relative="1" as="geometry">
            <mxPoint x="3801" y="-620" as="sourcePoint" />
            <mxPoint x="3829" y="-449" as="targetPoint" />
          </mxGeometry>
        </mxCell>
        <mxCell id="WysfXRv8Ii81qzlpB0n0-50" value="" style="endArrow=classic;html=1;rounded=0;strokeWidth=2;" parent="1" source="WysfXRv8Ii81qzlpB0n0-45" target="WysfXRv8Ii81qzlpB0n0-3" edge="1">
          <mxGeometry width="50" height="50" relative="1" as="geometry">
            <mxPoint x="3832" y="-676" as="sourcePoint" />
            <mxPoint x="3893" y="-704" as="targetPoint" />
          </mxGeometry>
        </mxCell>
        <mxCell id="WysfXRv8Ii81qzlpB0n0-51" value="&lt;font style=&quot;font-size: 12px;&quot;&gt;Dust&lt;/font&gt;" style="ellipse;whiteSpace=wrap;html=1;aspect=fixed;strokeWidth=2;strokeColor=#b85450;fillColor=#ffffff;dashed=1;" parent="1" vertex="1">
          <mxGeometry x="3660" y="-130" width="50" height="50" as="geometry" />
        </mxCell>
        <mxCell id="WysfXRv8Ii81qzlpB0n0-52" value="" style="endArrow=classic;html=1;rounded=0;strokeColor=#B85450;dashed=1;dashPattern=8 8;strokeWidth=2;" parent="1" source="WysfXRv8Ii81qzlpB0n0-16" target="WysfXRv8Ii81qzlpB0n0-51" edge="1">
          <mxGeometry width="50" height="50" relative="1" as="geometry">
            <mxPoint x="3479" y="-211" as="sourcePoint" />
            <mxPoint x="3511" y="-220" as="targetPoint" />
          </mxGeometry>
        </mxCell>
        <mxCell id="WysfXRv8Ii81qzlpB0n0-53" value="" style="endArrow=classic;html=1;rounded=0;strokeColor=#B85450;dashed=1;dashPattern=8 8;strokeWidth=2;" parent="1" source="WysfXRv8Ii81qzlpB0n0-51" target="WysfXRv8Ii81qzlpB0n0-22" edge="1">
          <mxGeometry width="50" height="50" relative="1" as="geometry">
            <mxPoint x="3748" y="-180" as="sourcePoint" />
            <mxPoint x="3952" y="6" as="targetPoint" />
          </mxGeometry>
        </mxCell>
        <mxCell id="WysfXRv8Ii81qzlpB0n0-54" value="" style="endArrow=classic;html=1;rounded=0;strokeColor=#B85450;dashed=1;dashPattern=8 8;strokeWidth=2;" parent="1" source="WysfXRv8Ii81qzlpB0n0-51" target="WysfXRv8Ii81qzlpB0n0-33" edge="1">
          <mxGeometry width="50" height="50" relative="1" as="geometry">
            <mxPoint x="3708" y="-6" as="sourcePoint" />
            <mxPoint x="3819" y="-191" as="targetPoint" />
          </mxGeometry>
        </mxCell>
        <mxCell id="WysfXRv8Ii81qzlpB0n0-55" value="" style="endArrow=classic;html=1;rounded=0;strokeColor=#B85450;dashed=1;dashPattern=8 8;strokeWidth=2;" parent="1" source="WysfXRv8Ii81qzlpB0n0-17" target="WysfXRv8Ii81qzlpB0n0-51" edge="1">
          <mxGeometry width="50" height="50" relative="1" as="geometry">
            <mxPoint x="3527" y="-192" as="sourcePoint" />
            <mxPoint x="3673" y="-108" as="targetPoint" />
          </mxGeometry>
        </mxCell>
        <mxCell id="WysfXRv8Ii81qzlpB0n0-56" value="" style="endArrow=classic;html=1;rounded=0;strokeWidth=2;" parent="1" source="WysfXRv8Ii81qzlpB0n0-30" target="WysfXRv8Ii81qzlpB0n0-4" edge="1">
          <mxGeometry width="50" height="50" relative="1" as="geometry">
            <mxPoint x="4000" y="-360" as="sourcePoint" />
            <mxPoint x="3831" y="-450" as="targetPoint" />
          </mxGeometry>
        </mxCell>
        <mxCell id="WysfXRv8Ii81qzlpB0n0-57" value="" style="endArrow=classic;html=1;rounded=0;strokeWidth=2;" parent="1" source="WysfXRv8Ii81qzlpB0n0-24" target="WysfXRv8Ii81qzlpB0n0-4" edge="1">
          <mxGeometry width="50" height="50" relative="1" as="geometry">
            <mxPoint x="4132" y="-303" as="sourcePoint" />
            <mxPoint x="3873" y="-397" as="targetPoint" />
          </mxGeometry>
        </mxCell>
        <mxCell id="WysfXRv8Ii81qzlpB0n0-61" value="&lt;div style=&quot;text-align: center;&quot;&gt;&lt;font style=&quot;font-size: 48px;&quot;&gt;Fluid C.&amp;nbsp;&lt;/font&gt;&lt;/div&gt;" style="text;whiteSpace=wrap;html=1;fillColor=none;" parent="1" vertex="1">
          <mxGeometry x="3760" y="-750" width="210" height="40" as="geometry" />
        </mxCell>
        <mxCell id="WysfXRv8Ii81qzlpB0n0-63" value="&lt;div style=&quot;text-align: center;&quot;&gt;&lt;font style=&quot;font-size: 48px;&quot;&gt;Fluid H.&amp;nbsp;&lt;/font&gt;&lt;/div&gt;" style="text;whiteSpace=wrap;html=1;fillColor=none;" parent="1" vertex="1">
          <mxGeometry x="4210" y="-110" width="210" height="40" as="geometry" />
        </mxCell>
      </root>
    </mxGraphModel>
  </diagram>
</mxfile>
